<svg width="17" height="16" viewBox="0 0 17 16" fill="none" xmlns="http://www.w3.org/2000/svg">
<path d="M15.6847 7.97323C15.2055 7.48524 15.0986 6.74384 15.4206 6.14023C15.6504 5.71005 15.6666 5.19853 15.4636 4.75423C15.2612 4.3106 14.8633 3.98661 14.3874 3.87907C13.7213 3.72783 13.23 3.16187 13.1755 2.48029C13.1359 1.99432 12.8724 1.55405 12.4617 1.29056C12.0523 1.0264 11.5428 0.969263 11.0837 1.13663C10.4411 1.36987 9.72193 1.15814 9.30787 0.615032C9.01212 0.227864 8.55236 0 8.06437 0C7.57705 0 7.11728 0.227864 6.82153 0.615032C6.40949 1.15881 5.69028 1.37055 5.04769 1.1373C4.58927 0.970607 4.07977 1.02774 3.66974 1.29123C3.25972 1.55472 2.99556 1.99499 2.95658 2.48096C2.90146 3.16254 2.41078 3.72918 1.74466 3.87974C1.26877 3.98729 0.870845 4.31127 0.668523 4.7549C0.466201 5.19853 0.482333 5.71072 0.712214 6.14023C1.03418 6.74317 0.927307 7.48524 0.448725 7.97323C0.106592 8.32074 -0.0533831 8.80806 0.01585 9.29067C0.0850831 9.77329 0.376131 10.1961 0.802284 10.4334C1.39917 10.7661 1.71105 11.4483 1.57124 12.1171C1.47243 12.5944 1.60082 13.0904 1.9201 13.4588C2.24005 13.8278 2.71325 14.0261 3.19856 13.9952C3.88148 13.9528 4.5113 14.3581 4.75597 14.996C4.93006 15.4517 5.30714 15.7993 5.77564 15.9364C6.2428 16.0735 6.74827 15.9848 7.14081 15.6964C7.69132 15.2911 8.44212 15.2911 8.99196 15.6964C9.3845 15.9854 9.88997 16.0742 10.3571 15.9364C10.8256 15.7993 11.2027 15.4511 11.3775 14.996C11.6215 14.3581 12.252 13.9521 12.9342 13.9952C13.4209 14.0261 13.8934 13.8278 14.2127 13.4588C14.5319 13.0904 14.661 12.5944 14.5615 12.1171C14.4224 11.4483 14.7336 10.7661 15.3312 10.4334C15.7566 10.1954 16.047 9.77329 16.1169 9.29067C16.1868 8.80806 16.0262 8.32074 15.6847 7.97323V7.97323ZM7.22618 11.6231L4.20143 8.68976L5.44964 7.44155L7.22618 9.12599L11.0192 5.23819L12.2674 6.4864L7.22618 11.6231Z" fill="#F8765E"/>
</svg>
