<svg width="139" height="58" viewBox="0 0 139 58" fill="none" xmlns="http://www.w3.org/2000/svg">
<g clip-path="url(#clip0_1_442)">
<path d="M51.6771 28.3896V29.1387C51.6771 30.5521 51.4782 31.8216 51.0804 32.9473C50.6911 34.0645 50.1368 35.0208 49.4174 35.8164C48.698 36.6035 47.8474 37.2087 46.8656 37.6318C45.8838 38.0465 44.8005 38.2539 43.6156 38.2539C42.4222 38.2539 41.3304 38.0465 40.3402 37.6318C39.3584 37.2087 38.5036 36.6035 37.7758 35.8164C37.0564 35.0208 36.4978 34.0645 36.1 32.9473C35.7107 31.8216 35.516 30.5521 35.516 29.1387V28.3896C35.516 26.9762 35.7107 25.7067 36.1 24.5811C36.4978 23.4554 37.0521 22.499 37.7631 21.7119C38.4825 20.9163 39.333 20.3112 40.3148 19.8965C41.3051 19.4733 42.3969 19.2617 43.5902 19.2617C44.7751 19.2617 45.8584 19.4733 46.8402 19.8965C47.8304 20.3112 48.6853 20.9163 49.4047 21.7119C50.1241 22.499 50.6827 23.4554 51.0804 24.5811C51.4782 25.7067 51.6771 26.9762 51.6771 28.3896ZM47.1576 29.1387V28.3643C47.1576 27.4502 47.0772 26.6462 46.9164 25.9521C46.764 25.2497 46.5355 24.6615 46.2308 24.1875C45.9261 23.7135 45.5495 23.3581 45.101 23.1211C44.6608 22.8757 44.1573 22.7529 43.5902 22.7529C42.9978 22.7529 42.4815 22.8757 42.0414 23.1211C41.6013 23.3581 41.2331 23.7135 40.9369 24.1875C40.6407 24.6615 40.4164 25.2497 40.264 25.9521C40.1202 26.6462 40.0482 27.4502 40.0482 28.3643V29.1387C40.0482 30.0443 40.1202 30.8483 40.264 31.5508C40.4164 32.2448 40.6407 32.833 40.9369 33.3154C41.2416 33.7979 41.614 34.1618 42.0541 34.4072C42.5026 34.6527 43.0232 34.7754 43.6156 34.7754C44.1827 34.7754 44.6862 34.6527 45.1263 34.4072C45.5664 34.1618 45.9346 33.7979 46.2308 33.3154C46.5355 32.833 46.764 32.2448 46.9164 31.5508C47.0772 30.8483 47.1576 30.0443 47.1576 29.1387ZM53.9877 19.5156H61.2621C62.684 19.5156 63.9196 19.7272 64.9691 20.1504C66.0186 20.5736 66.8269 21.1999 67.3939 22.0293C67.9694 22.8587 68.2572 23.8828 68.2572 25.1016C68.2572 26.1595 68.0922 27.0439 67.7621 27.7549C67.432 28.4658 66.9707 29.054 66.3783 29.5195C65.7943 29.9766 65.113 30.3532 64.3344 30.6494L62.8744 31.4746H56.7679L56.7426 28.0342H61.2621C61.8291 28.0342 62.2989 27.9326 62.6713 27.7295C63.0437 27.5264 63.323 27.2386 63.5092 26.8662C63.7038 26.4854 63.8011 26.0326 63.8011 25.5078C63.8011 24.9746 63.7038 24.5176 63.5092 24.1367C63.3145 23.7559 63.0267 23.4639 62.6459 23.2607C62.2735 23.0576 61.8122 22.9561 61.2621 22.9561H58.4437V38H53.9877V19.5156ZM64.1058 38L60.0179 29.8242L64.7406 29.7988L68.8793 37.8096V38H64.1058ZM78.7816 23.4004L74.2748 38H69.4886L76.2806 19.5156H79.3148L78.7816 23.4004ZM82.514 38L77.9945 23.4004L77.4105 19.5156H80.4828L87.3129 38H82.514ZM82.3363 31.1064V34.5469H72.8529V31.1064H82.3363ZM104.109 19.5156V38H99.6654L93.1273 26.498V38H88.6713V19.5156H93.1273L99.6654 31.0176V19.5156H104.109ZM122.047 28.123V35.7148C121.734 36.0618 121.252 36.4342 120.6 36.832C119.957 37.2214 119.144 37.5557 118.162 37.835C117.181 38.1143 116.025 38.2539 114.697 38.2539C113.469 38.2539 112.356 38.0592 111.358 37.6699C110.359 37.2721 109.5 36.6924 108.781 35.9307C108.07 35.1605 107.52 34.221 107.13 33.1123C106.749 31.9951 106.559 30.7171 106.559 29.2783V28.25C106.559 26.8112 106.754 25.5332 107.143 24.416C107.532 23.2988 108.078 22.3594 108.781 21.5977C109.492 20.8275 110.325 20.2435 111.282 19.8457C112.246 19.4479 113.304 19.249 114.455 19.249C116.157 19.249 117.54 19.5199 118.607 20.0615C119.673 20.5947 120.481 21.3353 121.032 22.2832C121.582 23.2227 121.916 24.3102 122.035 25.5459H117.756C117.672 24.9365 117.511 24.4202 117.274 23.9971C117.045 23.5654 116.715 23.2396 116.284 23.0195C115.852 22.791 115.293 22.6768 114.608 22.6768C114.075 22.6768 113.588 22.791 113.148 23.0195C112.716 23.248 112.348 23.5951 112.043 24.0605C111.739 24.5176 111.502 25.0931 111.332 25.7871C111.172 26.4811 111.091 27.2936 111.091 28.2246V29.2783C111.091 30.2008 111.167 31.0091 111.32 31.7031C111.481 32.3971 111.717 32.9769 112.031 33.4424C112.352 33.8994 112.759 34.2464 113.249 34.4834C113.749 34.7119 114.337 34.8262 115.014 34.8262C115.488 34.8262 115.894 34.7881 116.233 34.7119C116.571 34.6273 116.851 34.5257 117.071 34.4072C117.299 34.2803 117.473 34.1618 117.591 34.0518V31.1826H114.494V28.123H122.047ZM137.37 34.5723V38H127.519V34.5723H137.37ZM129.106 19.5156V38H124.65V19.5156H129.106ZM136.101 26.8535V30.167H127.519V26.8535H136.101ZM137.409 19.5156V22.9561H127.519V19.5156H137.409Z" fill="#F8765E"/>
<path d="M13.6243 44.5551C21.1407 44.5551 27.2547 38.3692 27.2547 30.7705C27.2547 24.0564 22.4036 19.9898 14.2436 19.7994C14.3043 18.534 14.6322 15.5977 16.4293 15.3704C16.7572 15.3274 16.9939 15.0202 16.9514 14.6824C16.915 14.3506 16.6114 14.1111 16.2775 14.1541C15.1684 14.2931 14.4398 14.9758 13.9559 15.8397C11.7573 13.3687 9.77862 13.7618 8.16 14.0927C7.0975 14.3015 6.18679 14.492 5.25788 13.9514C5.02108 13.8162 4.72359 13.8592 4.5293 14.0558C4.33501 14.2462 4.29858 14.5534 4.43214 14.793C5.78001 17.1887 7.44358 18.5769 9.36821 18.9209C9.69001 18.9824 10.0118 19.0069 10.3154 19.0069C11.4404 19.0069 12.4313 18.6619 13.1672 18.2969C13.0744 18.8813 13.0371 19.4137 13.0232 19.7994C4.85714 19.9837 0 24.0564 0 30.7705C0 38.3692 6.10786 44.5551 13.6243 44.5551ZM21.3109 25.3893C21.5475 25.1619 21.9483 25.1619 22.173 25.3893C22.288 25.5059 22.3491 25.6658 22.3491 25.8254C22.3491 25.9913 22.288 26.1448 22.173 26.2615C22.0633 26.3722 21.9056 26.4397 21.7419 26.4397C21.5836 26.4397 21.4259 26.3722 21.3109 26.2615C21.2012 26.1448 21.1348 25.9853 21.1348 25.8254C21.1348 25.6658 21.2012 25.5059 21.3109 25.3893ZM21.3109 29.2532C21.5415 29.0198 21.9483 29.0258 22.173 29.2532C22.288 29.3698 22.3491 29.5234 22.3491 29.6893C22.3491 29.8491 22.288 30.0087 22.173 30.1254C22.0633 30.2361 21.9056 30.3036 21.7419 30.3036C21.5836 30.3036 21.4259 30.2361 21.3109 30.1194C21.2012 30.0087 21.1348 29.8491 21.1348 29.6893C21.1348 29.5297 21.2012 29.3698 21.3109 29.2532ZM19.1734 28.2456C19.2891 28.3563 19.3495 28.5159 19.3495 28.6758C19.3495 28.8353 19.2891 28.9952 19.1734 29.1119C19.0578 29.2226 18.906 29.29 18.7424 29.29C18.5847 29.29 18.427 29.2226 18.3173 29.1119C18.2022 28.9952 18.1352 28.8353 18.1352 28.6758C18.1352 28.5159 18.2022 28.3563 18.3173 28.2396C18.5361 28.0183 18.9487 28.0123 19.1734 28.2456ZM17.4979 24.2897C17.7226 24.0563 18.1293 24.0563 18.354 24.2897C18.4691 24.4004 18.5301 24.5599 18.5301 24.7198C18.5301 24.8857 18.4691 25.0452 18.354 25.1559C18.2443 25.2726 18.0866 25.3341 17.9289 25.3341C17.7647 25.3341 17.6129 25.2726 17.4979 25.1559C17.3822 25.0452 17.3218 24.8857 17.3218 24.7198C17.3218 24.5599 17.3822 24.4004 17.4979 24.2897ZM14.5594 27.14C14.7841 26.9127 15.1968 26.9127 15.415 27.14C15.5306 27.2504 15.5911 27.4103 15.5911 27.5699C15.5911 27.7357 15.5306 27.8956 15.415 28.0063C15.3059 28.123 15.1481 28.1841 14.9839 28.1841C14.8262 28.1841 14.6685 28.123 14.5594 28.0063C14.4438 27.8956 14.3833 27.7357 14.3833 27.5699C14.3833 27.4103 14.4438 27.2504 14.5594 27.14Z" fill="#F8765E"/>
</g>
<defs>
<clipPath id="clip0_1_442">
<rect width="138.627" height="58" fill="white"/>
</clipPath>
</defs>
</svg>
